<svg class="main-svg" xmlns="http://www.w3.org/2000/svg" xmlns:xlink="http://www.w3.org/1999/xlink" width="600" height="480" style="" viewBox="0 0 600 480"><rect x="0" y="0" width="600" height="480" style="fill: rgb(255, 255, 255); fill-opacity: 1;"/><defs id="defs-e1bc07"><g class="clips"><clipPath id="clipe1bc07xyplot" class="plotclip"><rect width="480" height="290"/></clipPath><clipPath class="axesclip" id="clipe1bc07x"><rect x="100" y="0" width="480" height="480"/></clipPath><clipPath class="axesclip" id="clipe1bc07y"><rect x="0" y="110" width="600" height="290"/></clipPath><clipPath class="axesclip" id="clipe1bc07xy"><rect x="100" y="110" width="480" height="290"/></clipPath></g><g class="gradients"/><g class="patterns"/></defs><g class="bglayer"/><g class="layer-below"><g class="imagelayer"/><g class="shapelayer"/></g><g class="cartesianlayer"><g class="subplot xy"><g class="layer-subplot"><g class="shapelayer"/><g class="imagelayer"/></g><g class="minor-gridlayer"><g class="x"/><g class="y"/></g><g class="gridlayer"><g class="x"/><g class="y"/></g><g class="zerolinelayer"/><path class="xlines-below"/><path class="ylines-below"/><g class="overlines-below"/><g class="xaxislayer-below"/><g class="yaxislayer-below"/><g class="overaxes-below"/><g class="plot" transform="translate(100,110)" clip-path="url(#clipe1bc07xyplot)"><g class="scatterlayer mlayer"><g class="trace scatter tracef0d7a5" style="stroke-miterlimit: 2; opacity: 1;"><g class="fills"/><g class="errorbars"/><g class="lines"><path class="js-line" d="M0,227.5L4.62,223.75L9.23,221.29L13.85,233.76L18.46,253.53L23.08,260.87L27.69,232.11L32.31,226.6L36.92,225.32L41.54,218.56L46.15,222.08L50.77,245.56L55.38,240.46L60,239.38L64.62,227.98L69.23,244.16L73.85,250.26L78.46,211.65L83.08,203.1L87.69,207.19L92.31,203.12L101.54,197.52L106.15,202.65L110.77,209.69L115.38,209.35L124.62,198.18L129.23,197.98L133.85,198.81L138.46,168.27L143.08,169.1L147.69,151.06L152.31,153.61L156.92,133.02L161.54,144.38L166.15,139.82L170.77,150.92L175.38,136.41L180,139.01L184.62,142.93L193.85,153.36L198.46,169.19L203.08,174.59L207.69,194.23L212.31,232.36L216.92,221.07L221.54,239.18L226.15,244.59L230.77,271.07L235.38,261.19L240,275.5L244.62,268.27L249.23,260.13L253.85,258.45L258.46,242.72L263.08,235.74L267.69,235.72L272.31,231.14L276.92,227.55L281.54,231.25L286.15,207.53L290.77,198.68L295.38,200.66L300,188L304.62,184.65L309.23,175.69L313.85,174.9L318.46,161.52L323.08,187.68L327.69,202.36L332.31,220.37L336.92,227.37L341.54,200.3L346.15,195.65L350.77,184.81L355.38,186.35L360,175.02L364.62,176.69L369.23,177.97L373.85,168.72L383.08,180.84L387.69,170.95L392.31,177.88L396.92,166.93L401.54,158.81L406.15,148.96L410.77,150.79L415.38,148.83L424.62,117.61L429.23,117.26L438.46,82.41L443.08,74.66L447.69,64.57L452.31,71.71L456.92,61.89L461.54,55.68L470.77,40.01L475.38,21.41L480,14.5" style="vector-effect: non-scaling-stroke; fill: none; stroke: rgb(99, 110, 250); stroke-opacity: 1; stroke-width: 2px; opacity: 1;"/></g><g class="points"/><g class="text"/></g></g></g><g class="overplot"/><path class="xlines-above crisp" d="M100,401H580" style="fill: none; stroke-width: 2px; stroke: rgb(204, 204, 204); stroke-opacity: 1;"/><path class="ylines-above crisp" d="M0,0" style="fill: none;"/><g class="overlines-above"/><g class="xaxislayer-above"><path class="xtick ticks crisp" d="M0,402v5" transform="translate(100,0)" style="stroke: rgb(68, 68, 68); stroke-opacity: 1; stroke-width: 1px;"/><path class="xtick ticks crisp" d="M0,402v5" transform="translate(219.34,0)" style="stroke: rgb(68, 68, 68); stroke-opacity: 1; stroke-width: 1px;"/><path class="xtick ticks crisp" d="M0,402v5" transform="translate(340.65999999999997,0)" style="stroke: rgb(68, 68, 68); stroke-opacity: 1; stroke-width: 1px;"/><path class="xtick ticks crisp" d="M0,402v5" transform="translate(460,0)" style="stroke: rgb(68, 68, 68); stroke-opacity: 1; stroke-width: 1px;"/><g class="xtick"><text text-anchor="middle" x="0" y="419" transform="translate(100,0)" style="font-family: Arial; font-size: 10px; fill: rgb(82, 82, 82); fill-opacity: 1; white-space: pre; opacity: 1;">Jan 2018</text></g><g class="xtick"><text text-anchor="middle" x="0" y="419" style="font-family: Arial; font-size: 10px; fill: rgb(82, 82, 82); fill-opacity: 1; white-space: pre; opacity: 1;" transform="translate(219.34,0)">Jul 2018</text></g><g class="xtick"><text text-anchor="middle" x="0" y="419" style="font-family: Arial; font-size: 10px; fill: rgb(82, 82, 82); fill-opacity: 1; white-space: pre; opacity: 1;" transform="translate(340.65999999999997,0)">Jan 2019</text></g><g class="xtick"><text text-anchor="middle" x="0" y="419" style="font-family: Arial; font-size: 10px; fill: rgb(82, 82, 82); fill-opacity: 1; white-space: pre; opacity: 1;" transform="translate(460,0)">Jul 2019</text></g></g><g class="yaxislayer-above"/><g class="overaxes-above"/></g></g><g class="polarlayer"/><g class="smithlayer"/><g class="ternarylayer"/><g class="geolayer"/><g class="funnelarealayer"/><g class="pielayer"/><g class="iciclelayer"/><g class="treemaplayer"/><g class="sunburstlayer"/><g class="glimages"/><defs id="topdefs-e1bc07"><g class="clips"/></defs><g class="layer-above"><g class="imagelayer"/><g class="shapelayer"/></g><g class="infolayer"><g class="g-gtitle"><text class="gtitle" x="30" y="55" text-anchor="start" dy="0em" style="font-family: Arial; font-size: 16px; fill: rgb(82, 82, 82); opacity: 1; font-weight: normal; white-space: pre;">Marcin</text></g><g class="g-xtitle"/><g class="g-ytitle"/></g></svg>